<?xml version="1.0" encoding="UTF-8"?>
<svg viewBox="0 0 474.23 355.54" xmlns="http://www.w3.org/2000/svg">
 <path d="m474.18 59.671c-0.24002 5.823 2.291 17.688-19.773 54.514-24.644 41.138-62.644 75.318-99.903 102.99-22.475 16.694-45.501 30.249-69.409 42.238-6.224-2.032-13.88-4.705-22.446-8.048-0.057007-0.018997-0.108-0.047012-0.16501-0.065002 5.936-2.952 12.353-6.247 19.382-9.991 68.814-36.618 81.563-58.697 80.965-59.296-0.59802-0.599-17.901 19.557-77.217 54.096-8.638 5.026-17.496 9.595-26.511 13.748-6.676-2.758-13.229-5.771-18.821-8.608 28.807-12.494 59.509-28.038 84.666-44.672 38.717-25.591 75.161-55.576 104.07-89.258 26.407-30.763 37.261-46.604 38.925-49.726 2.615-4.908 6.816-11.669 6.241 2.079zm-17.553 33.847c-0.82999-0.278-6.657 14.979-27.473 40.501-20.768 25.468-39.409 40.779-38.575 41.611 0.83499 0.83198 16.751-10.464 41.074-40.779 21.881-27.274 25.809-41.058 24.974-41.333zm-153.38 19.537c-3.051 0.832-4.563-2.89-4.795-5.945-0.55701-7.213 0.67001-11.527 0.075012-15.376-0.67401-4.359 1.707-11.415-3.725-9.076-3.083 1.327-0.51901 4.757 0.595 8.362 1.112 3.606 0.82898 15.751 0.82898 18.312 0 4.437 2.499 7.039 9.161 9.432 7.661 2.751 1.565 20.69-5.827 22.746-7.681 2.14-11.99-3.159-17.487-2.218-9.712 1.664-7.77 11.096-9.712 14.148-1.942 3.05-1.942 3.05-5.271 6.381-2.451 2.447-4.05 4.411-5.766 5.957 0.26898 0.23099 0.46201 0.63199 0.509 1.306 0.21298 2.914 2.551 5.15 2.551 8.062 0 2.916-0.92902 3.953-4.677 4.783-3.743 0.83502-5.394-0.62198-5.601-1.867-0.20801-1.249 0.31099-5.801 0.914-8.234 0.198-0.801 0.472-1.29 0.75899-1.615-3.04 0.54898-6.836 0.76199-9.5 0.76199-0.098999 0-0.19699 0.001984-0.297 0.001984 0.646 0.43201 1.344 1.167 1.787 2.497 1.056 3.164 1.217 5.547 1.424 7.418 0.207 1.872-2.291 2.499-4.79 2.706-2.499 0.20799-5.412-0.62199-5.827-1.669-0.41501-1.037 0.273-5.372 0.69699-7.621 0.26001-1.37 1.65-2.546 2.726-3.274-2.811 0.063019-5.809 0.16501-8.869 0.21201 0.81599 0.875 1.613 1.952 1.806 2.989 0.422 2.249 1.351 5.62 1.143 7.072-0.20999 1.457-0.834 1.876-4.788 2.084-3.956 0.20702-5.29-0.41498-5.707-1.245-0.41701-0.834 0.302-5.822 0.801-7.885 0.269-1.101 1.091-2.188 1.846-2.999-2.468-0.027985-4.927-0.12299-7.319-0.32498 0.58699 1.631 3.267 4.42 2.558 8.908-0.396 2.499-1.57 3.536-6.961 3.546-3.121 0.005005-4.566-2.084-4.573-3.536-0.021011-3.989 1.669-6.771 2.555-9.623-2.996-0.339-4.813-0.58301-6.294-1.2 0.205 1.344 1.011 4.894 1.447 8.531 0.276 2.282-0.832 3.536-3.536 3.536-2.706 0-4.373-1.451-4.373-2.704 0-3.328 4.891-9.519 5.292-9.785 0.040009-0.02597 0.087006-0.065979 0.13701-0.10397-0.285-0.172-0.56601-0.36301-0.849-0.58402-2.499-1.94-5.549-4.706-7.173-11.745-1.626-7.039-1.044-11.332-6.464-14.58-5.417-3.248-15.179 4.524-20.056 4.015-5.431-0.56799-12.298-11.431-12.739-16.548-0.517-5.983 5.32-3.206 8.642-10.778 2.112-4.821 0.012009-10.844 0.012009-24.379 0-13.538 4.656-20.431 7.598-27.074 2.14-4.835-0.828-8.43 2.946-21.065 3.225-10.79 6.131-14.804 6.131-14.804s-5.193 4.273-8.243 14.342c-2.702 8.911-1.876 13.404-4.045 20.443-2.167 7.039-5.443 11.676-7.069 22.505-1.625 10.83 1.098 24.035-1.625 28.408-1.834 2.944-7.916-0.238-8.708-11.108-0.681-9.323-1.891-27.76-0.26401-38.589 1.624-10.83 2.583-6.803 8.312-26.716 6.749-23.469 36.19-37.757 71.342-38.236 30.707-0.419 41.927 9.528 51.96 19 10.462 9.88 17.76 23.698 19.98 32.576s4.163 12.562 5.549 20.054c1.392 7.489 0.642 18.368-0.71201 23.778-1.506 6.022-4.462 16.547-8.442 17.634zm-84.237-23.837c-3.953-6.242-14.578-7.322-22.685-7.699-8.951-0.417-13.85 2.338-14.778 9.156-0.75 5.497 0.20801 13.731 2.082 19.764 1.629 5.248 8.116 12.277 13.736 11.445 4.514-0.669 14.148-7.878 19.773-14.356 3.362-3.876 3.779-15.304 1.872-18.31zm12.49 16.852c-2.086 0.146-5.203 7.074-6.66 15.813-0.959 5.759-4.776 13.8-3.956 18.724 0.552 3.31 3.623 3.784 5.413 0.20801 1.457-2.911 2.289-5.617 4.37-5.617s6.674 12.192 9.366 11.859c3.106-0.382 6.935-5.195 6.454-11.235-0.42-5.2-2.499-10.403-5.62-15.813s-7.298-14.082-9.367-13.939zm50.573-16.852c-3.121-4.163-8.533-7.699-19.146-7.074-8.778 0.51601-17.524 4.062-18.316 9.986-0.829 6.242 0.94301 9.5 4.376 13.731 3.535 4.37 13.526 12.901 19.976 13.316 6.454 0.417 12.074-1.04 12.904-7.489 0.83301-6.45 3.327-18.31 0.20599-22.47zm-14.36 101.33c4.997-4.997 4.167-13.526 6.247-24.346 2.079-10.818 5.827-14.148 8.321-17.892 2.498-3.746 8.462-3.234 9.16-1.664 0.83499 1.872-1.711 14.507-4.163 22.677-3.743 12.485-3.951 17.477-4.163 23.927-0.17499 5.507-8.948 9.778-13.526 14.148-4.582 4.366-8.741 12.484-14.36 14.148-5.62 1.664-13.531-1.249-22.065-1.042-8.534 0.20802-17.067 2.292-21.645 0.623-4.578-1.66-9.783-9.363-15.61-14.56-5.827-5.205-12.696-8.326-14.775-13.318-2.082-4.993 0-11.028-0.41701-18.727-0.41699-7.697-2.497-12.482-4.58-17.06-2.08-4.578-0.698-7.878 2.706-9.153 4.995-1.872 8.534 2.289 11.032 10.193 2.607 8.253 4.92 13.097 5.41 19.976 0.625 8.736 1.874 10.4 4.788 13.521 1.66 1.782 4.719 2.848 7.933 3.734-0.592-1.561-1.122-3.593-0.856-7.271 0.13701-1.876 1.665-2.498 4.995-2.706 3.331-0.207 5.535 0.62701 5.62 2.292 0.28 5.487-1.056 7.835-2.016 9.679 1.792 0.273 4.432 0.43799 7.473 0.528-1.125-2.259-2.327-4.865-2.336-9.17-0.005005-2.466 1.874-2.079 4.995-2.287 3.124-0.207 6.334-0.24501 6.452 1.872 0.23801 4.281-1.221 7.063-2.556 9.675 2.242 0.003998 4.524-0.014984 6.711-0.047989-0.90999-2.819-1.716-6.459-1.242-9.627 0.18799-1.254 2.916-1.664 5.415-1.872 2.494-0.207 5.53 1.028 5.619 2.494 0.189 3.244-0.801 6.384-1.923 8.845 1.499-0.036987 2.8-0.074997 3.79-0.10399 0.94299-0.028 1.886-0.095001 2.834-0.19801-1.07-2.027-2.117-4.582-1.994-6.666 0.089005-1.679 3.743-5.205 6.656-4.998 2.32 0.17001 4.81 0.66 4.937 1.914 0.27301 2.631-0.552 5.493-1.569 7.883 3.265-1.219 6.278-3.001 8.702-5.42zm65.953 86.76s0.315 4.309-9.406 7.906c-5.719 2.117-6.808 3.229-37.278-7.699-9.18-3.291-59.186-17.595-99.771-41.404-58.875-34.539-75.64-54.897-76.639-54.096s12.06 22.678 80.356 59.296c54.051 28.981 72.919 32.253 95.229 40.155 27.354 9.693 30.155 9.9001 33.88 14.36 4.055 4.861 2.475 15.394 2.475 15.394s-49.603-14.092-86.759-29.754c-41.513-17.496-79.942-36.614-116.92-64.289-36.975-27.671-74.694-61.852-99.154-102.99-21.896-36.827-19.383-48.691-19.623-54.514-0.57-13.748 3.598-6.987 6.198-2.079 1.652 3.121 12.42 18.962 38.627 49.726 28.693 33.682 64.862 63.667 103.29 89.258 35.27 23.493 73.699 40.594 110.76 55.666 41.016 16.69 74.74 25.063 74.74 25.063zm-284.49 11.442c8.753 0 14.154 6.864 14.154 15.186 0 13.951-12.428 13.211-12.694 15.605-0.267 2.4 3.628 4.088 9.78 3.121 4.18-0.65503 7.978-7.063 9.576-5.2s-8.722 14.563-18.524 14.563c-10.615 0-20.815-9.151-20.815-22.263-9.99e-4 -14.982 8.118-21.012 18.523-21.012zm22.479-0.2079c7.242 0 8.3 2.527 10.408 9.359 1.968 6.393 6.334 7.958 7.284 7.911 0.95-0.052032-2.657-2.834-4.58-8.119-1.665-4.573-4.092-9.985 5.205-9.985 8.958 0 8.915 3.828 10.198 7.284 2.082 5.615 7.685 9.83 8.533 9.778 0.848-0.052002-4.37-5.408-5.62-10.198-0.95901-3.673-0.844-6.657 4.371-6.657 4.37 0 7.077 4.998 10.822 11.655 3.27 5.808 6.605 18.967 0.21001 19.556-9.456 0.86798-37.635 1.697-41.418-0.62201-6.69-4.111-9.158-9.363-11.032-17.063-2.278-9.363-2.023-12.899 5.619-12.899zm32.261-15.19c-1.04 1.25-1.247 8.114-9.366 8.114-8.116 0-13.943-5.822-13.943-16.228 0-10.401 7.284-15.813 17.064-15.813 9.783 0 17.692 4.37 25.393 13.314 7.633 8.873 10.316 19.627 14.154 22.89 5.554 4.719 13.121 3.493 13.653 4.559s-6.994 4.593-6.876 14.668c0.102 8.745 0.714 18.222 3.421 22.805 2.706 4.573 5.827 7.901 6.869 7.694 1.04-0.20801 1.245-7.279 7.909-7.279 7.284 0 11.03 4.78 11.03 14.771 0 9.985-7.909 12.692-18.106 12.692s-18.941-6.2419-22.27-17.478c-3.331-11.235-6.452-26.426-10.615-37.453-4.163-11.023-11.447-23.3-13.529-25.384-2.082-2.079-3.746-3.121-4.788-1.872zm46.298 12.126c-10.422-0.63602-11.365-8.17-11.365-8.17s20.122-5.932 48.097-15.577c6.869 3.894 10.514 5.836 17.925 8.985-10.288 3.466-16.683 5.795-19.783 6.799-24.078 7.798-28.54 8.349-34.874 7.963zm82.146-2.485c-37.743 15.436-83.07 28.227-83.07 28.227s-1.589-10.532 2.496-15.394c4.371-5.205 11.657-6.449 34.134-14.36 8.375-2.942 15.275-5.248 24.698-8.478 10.351 5.248 15.301 7.327 21.742 10.005zm77.343 45.082c6.619 0 6.817 7.071 7.854 7.279 1.028 0.20703 4.13-3.121 6.817-7.694 2.683-4.583 4.135-15.002 3.725-23.738-0.41498-8.736-5.719-11.137-5.318-12.734 0.396-1.599 6.681-2.527 11.514-6.559 5.148-4.295 6.671-13.017 14.248-21.89 7.642-8.944 15.492-13.314 25.199-13.314 9.708 0 16.94 5.412 16.94 15.813 0 10.405-5.785 16.228-13.843 16.228-8.053 0-8.26-6.864-9.297-8.114-1.028-1.249-2.683-0.207-4.748 1.872-2.065 2.084-9.293 14.36-13.427 25.384-4.131 11.027-7.229 26.218-10.538 37.453-3.3 11.235-11.979 17.478-22.102 17.478-10.118 0-17.973-2.707-17.973-12.692 0.002014-9.991 3.722-14.772 10.949-14.772zm54.332-40.16c5.177 0 5.29 2.984 4.337 6.657-1.239 4.79-5.577 10.198-5.577 10.198s6.402-4.163 8.473-9.778c1.268-3.456 1.226-7.284 10.117-7.284 9.231 0 6.817 5.412 5.167 9.985-1.909 5.285-4.545 8.119-4.545 8.119s5.271-1.519 7.228-7.911c2.089-6.832 3.141-9.359 10.33-9.359 7.586 0 7.836 3.536 5.577 12.899-1.862 7.699-4.313 12.951-10.952 17.063-3.752 2.319-31.72 1.49-41.102 0.62201-6.351-0.58902-3.036-13.748 0.207-19.556 3.715-6.657 6.402-11.655 10.74-11.655zm46.685 34.747c6.162 0.50998 9.91-1.32 9.707-3.121-0.198-1.796-12.602-1.654-12.602-15.605 0-8.321 5.365-15.186 14.049-15.186 10.33 0 18.383 6.03 18.383 21.013 0 13.111-10.122 22.531-20.655 22.263-15.723-0.39603-20.386-12.965-18.387-14.563 1.999-1.599 3.96 4.747 9.505 5.199z" fill="#fff" stroke="#000" stroke-width="2"/>
</svg>
